<svg width="1280" height="720" xmlns="http://www.w3.org/2000/svg" xmlns:xlink="http://www.w3.org/1999/xlink" overflow="hidden"><defs><filter id="fx0" x="-10%" y="-10%" width="120%" height="120%" filterUnits="userSpaceOnUse" primitiveUnits="userSpaceOnUse"><feComponentTransfer color-interpolation-filters="sRGB"><feFuncR type="discrete" tableValues="0 0"/><feFuncG type="discrete" tableValues="0 0"/><feFuncB type="discrete" tableValues="0 0"/><feFuncA type="linear" slope="0.4" intercept="0"/></feComponentTransfer><feGaussianBlur stdDeviation="4.88889 4.88889"/></filter><filter id="fx1" x="-10%" y="-10%" width="120%" height="120%" filterUnits="userSpaceOnUse" primitiveUnits="userSpaceOnUse"><feComponentTransfer color-interpolation-filters="sRGB"><feFuncR type="discrete" tableValues="0 0"/><feFuncG type="discrete" tableValues="0 0"/><feFuncB type="discrete" tableValues="0 0"/><feFuncA type="linear" slope="0.4" intercept="0"/></feComponentTransfer><feGaussianBlur stdDeviation="4.44444 4.44444"/></filter><filter id="fx2" x="-10%" y="-10%" width="120%" height="120%" filterUnits="userSpaceOnUse" primitiveUnits="userSpaceOnUse"><feComponentTransfer color-interpolation-filters="sRGB"><feFuncR type="discrete" tableValues="0 0"/><feFuncG type="discrete" tableValues="0 0"/><feFuncB type="discrete" tableValues="0 0"/><feFuncA type="linear" slope="0.4" intercept="0"/></feComponentTransfer><feGaussianBlur stdDeviation="1.77778 1.77778"/></filter><filter id="fx3" x="-10%" y="-10%" width="120%" height="120%" filterUnits="userSpaceOnUse" primitiveUnits="userSpaceOnUse"><feComponentTransfer color-interpolation-filters="sRGB"><feFuncR type="discrete" tableValues="0 0"/><feFuncG type="discrete" tableValues="0 0"/><feFuncB type="discrete" tableValues="0 0"/><feFuncA type="linear" slope="0.4" intercept="0"/></feComponentTransfer><feGaussianBlur stdDeviation="1.77778 1.77778"/></filter><clipPath id="clip4"><rect x="0" y="0" width="1280" height="720"/></clipPath><clipPath id="clip5"><path d="M1.90809e-05 1.07363e-05 1280 1.07363e-05 1280 0.500064 0.500073 0.500064 0.500073 720 1.90809e-05 720Z" fill-rule="evenodd" clip-rule="evenodd"/></clipPath><clipPath id="clip6"><path d="M284.002 54.5001C225.735 54.5001 178.5 101.735 178.5 160.002L178.5 581.998C178.5 640.265 225.735 687.5 284.002 687.5L1028 687.5C1086.27 687.5 1133.5 640.265 1133.5 581.998L1133.5 160.002C1133.5 101.735 1086.27 54.5001 1028 54.5001ZM1.90735e-05 1.07288e-05 1280 1.07288e-05 1280 720 1.90735e-05 720Z" fill-rule="evenodd" clip-rule="evenodd"/></clipPath><clipPath id="clip7"><path d="M257.5 187.5 257.5 333.5 1053.5 333.5 1053.5 187.5ZM1.90735e-05 1.07288e-05 1280 1.07288e-05 1280 720 1.90735e-05 720Z" fill-rule="evenodd" clip-rule="evenodd"/></clipPath><clipPath id="clip8"><rect x="17" y="11" width="498" height="101"/></clipPath></defs><g clip-path="url(#clip4)"><rect x="0" y="0" width="1280" height="720" fill="#FFFFFF"/><g clip-path="url(#clip5)"><g filter="url(#fx0)" transform="translate(-15 -11)"><g><rect x="15.5001" y="16.8334" width="1280" height="720" stroke="#172C51" stroke-miterlimit="8" fill="#FFD966"/></g></g></g><rect x="0.500053" y="0.500053" width="1280" height="720" stroke="#172C51" stroke-width="1.33333" stroke-miterlimit="8" fill="#FFD966"/><g clip-path="url(#clip6)"><g filter="url(#fx1)" transform="translate(163 44)"><g><path d="M15.5 121.336C15.5 63.0684 62.735 15.8334 121.002 15.8334L864.998 15.8334C923.265 15.8334 970.5 63.0684 970.5 121.336L970.5 543.331C970.5 601.598 923.265 648.833 864.998 648.833L121.002 648.833C62.735 648.833 15.5 601.598 15.5 543.331Z" stroke="#172C51" stroke-miterlimit="8" fill="#FFF2CC" fill-rule="evenodd"/></g></g></g><path d="M178.5 160.002C178.5 101.735 225.735 54.5001 284.002 54.5001L1028 54.5001C1086.27 54.5001 1133.5 101.735 1133.5 160.002L1133.5 581.998C1133.5 640.265 1086.27 687.5 1028 687.5L284.002 687.5C225.735 687.5 178.5 640.265 178.5 581.998Z" stroke="#172C51" stroke-width="1.33333" stroke-miterlimit="8" fill="#FFF2CC" fill-rule="evenodd"/><g clip-path="url(#clip7)"><g filter="url(#fx2)" transform="translate(250 185)"><g><rect x="7.50006" y="7.83339" width="796" height="146" stroke="#172C51" stroke-miterlimit="8" fill="#DAE3F3"/></g></g><g clip-path="url(#clip8)" filter="url(#fx3)" transform="translate(390 186)"><g><path d="M14.1987 0 11.9048 0 11.562-10.7446 11.417-14.8711 10.6128-12.4717 8.06836-5.61621 6.44678-5.61621 4.021-12.208 3.2168-14.8711 3.16406-10.5601 2.86084 0 0.645996 0 1.48975-17.231 4.27148-17.231 6.5918-10.7446 7.34326-8.55615 8.06836-10.7446 10.5073-17.231 13.3682-17.231ZM28.0876-5.99854C28.0876-5.04932 27.9535-4.19019 27.6855-3.42114 27.4174-2.6521 27.0241-1.99731 26.5055-1.45679 25.987-0.91626 25.352-0.498779 24.6005-0.204346 23.849 0.0900879 22.9855 0.237305 22.0099 0.237305 20.9377 0.237305 20.028 0.0966797 19.2809-0.18457 18.5339-0.46582 17.9252-0.863525 17.455-1.37769 16.9848-1.89185 16.642-2.50928 16.4267-3.22998 16.2113-3.95068 16.1037-4.75488 16.1037-5.64258L16.1037-17.231 18.4504-17.231 18.4504-5.82715C18.4504-5.15039 18.5141-4.55713 18.6415-4.04736 18.769-3.5376 18.9777-3.11133 19.2677-2.76855 19.5578-2.42578 19.9335-2.1665 20.3949-1.99072 20.8564-1.81494 21.4211-1.72705 22.089-1.72705 23.3371-1.72705 24.2577-2.0874 24.851-2.80811 25.4443-3.52881 25.7409-4.54395 25.7409-5.85352L25.7409-17.231 28.0876-17.231ZM42.451-0.645996C41.0711-0.074707 39.6253 0.210937 38.1136 0.210938 35.679 0.210937 33.8092-0.516357 32.504-1.97095 31.1988-3.42554 30.5462-5.57666 30.5462-8.42432 30.5462-9.8042 30.7264-11.0522 31.0868-12.1685 31.4471-13.2847 31.9613-14.2317 32.6292-15.0095 33.2972-15.7874 34.1058-16.3872 35.055-16.8091 36.0042-17.231 37.0677-17.4419 38.2454-17.4419 39.0452-17.4419 39.7879-17.3738 40.4735-17.2375 41.159-17.1013 41.8182-16.8926 42.451-16.6113L42.451-14.3042C41.827-14.647 41.181-14.9084 40.513-15.0886 39.8451-15.2688 39.1156-15.3589 38.3245-15.3589 37.516-15.3589 36.7843-15.2073 36.1295-14.9041 35.4747-14.6008 34.9188-14.1614 34.4618-13.5857 34.0047-13.01 33.6532-12.3069 33.4071-11.4763 33.161-10.6458 33.0379-9.69873 33.0379-8.63525 33.0379-6.40283 33.4906-4.71973 34.3958-3.58594 35.3011-2.45215 36.6283-1.88525 38.3773-1.88525 39.1156-1.88525 39.8231-1.97095 40.4998-2.14233 41.1766-2.31372 41.827-2.55322 42.451-2.86084ZM57.3945 0 55.0479 0 55.0479-7.91016 47.8101-7.91016 47.8101 0 45.4634 0 45.4634-17.231 47.8101-17.231 47.8101-9.94043 55.0479-9.94043 55.0479-17.231 57.3945-17.231ZM73.3796 0 70.8219 0 69.6222-3.75732 62.4504-3.75732 61.2375 0 58.7985 0 64.5202-17.231 67.737-17.231ZM68.9499-5.85352 66.0363-15.0688 63.1227-5.85352ZM86.4774-4.66699C86.4774-3.84961 86.3104-3.1333 85.9764-2.51807 85.6424-1.90283 85.1766-1.39087 84.5789-0.982178 83.9813-0.573486 83.2628-0.268066 82.4234-0.065918 81.5841 0.13623 80.659 0.237305 79.6483 0.237305 79.1912 0.237305 78.7364 0.219727 78.2838 0.18457 77.8311 0.149414 77.3961 0.105469 76.9786 0.0527344 76.5611 1.86265e-09 76.1678-0.0615234 75.7987-0.131836 75.4295-0.202148 75.0955-0.276855 74.7967-0.355957L74.7967-2.62354C75.4559-2.37744 76.1964-2.18408 77.0182-2.04346 77.8399-1.90283 78.7738-1.83252 79.8197-1.83252 80.5755-1.83252 81.2193-1.89185 81.7511-2.0105 82.2828-2.12915 82.7178-2.30493 83.0562-2.53784 83.3946-2.77075 83.6407-3.0542 83.7945-3.38818 83.9483-3.72217 84.0252-4.10449 84.0252-4.53516 84.0252-5.00098 83.8956-5.39868 83.6363-5.72827 83.377-6.05786 83.0365-6.35229 82.6146-6.61157 82.1927-6.87085 81.7115-7.10815 81.171-7.32349 80.6304-7.53882 80.0789-7.76074 79.5164-7.98926 78.9539-8.21777 78.4024-8.46606 77.8619-8.73413 77.3214-9.0022 76.8402-9.3186 76.4183-9.68335 75.9964-10.0481 75.6558-10.4766 75.3966-10.9688 75.1373-11.4609 75.0077-12.0454 75.0077-12.7222 75.0077-13.311 75.1307-13.8911 75.3768-14.4624 75.6229-15.0337 76.0052-15.5413 76.5238-15.9851 77.0423-16.429 77.7081-16.7871 78.5211-17.0596 79.3341-17.332 80.3031-17.4683 81.4281-17.4683 81.7181-17.4683 82.0323-17.4551 82.3707-17.4287 82.7091-17.4023 83.0518-17.365 83.399-17.3167 83.7462-17.2683 84.0889-17.2134 84.4273-17.1519 84.7657-17.0903 85.0799-17.0244 85.37-16.9541L85.37-14.8447C84.6932-15.0381 84.0164-15.1853 83.3397-15.2864 82.6629-15.3875 82.0081-15.438 81.3753-15.438 80.0306-15.438 79.0418-15.2139 78.409-14.7656 77.7762-14.3174 77.4598-13.7153 77.4598-12.9595 77.4598-12.4937 77.5894-12.0937 77.8487-11.7598 78.108-11.4258 78.4486-11.127 78.8704-10.8633 79.2923-10.5996 79.7735-10.3601 80.314-10.1448 80.8546-9.92944 81.4061-9.70752 81.9686-9.479 82.5311-9.25049 83.0826-9 83.6231-8.72754 84.1637-8.45508 84.6449-8.13208 85.0667-7.75854 85.4886-7.38501 85.8292-6.94775 86.0885-6.44678 86.3477-5.9458 86.4774-5.35254 86.4774-4.66699ZM115.929-14.2778C115.288-14.6206 114.629-14.8865 113.952-15.0754 113.275-15.2644 112.537-15.3589 111.737-15.3589 110.823-15.3589 110.01-15.1963 109.298-14.8711 108.586-14.5459 107.986-14.0867 107.498-13.4934 107.011-12.9001 106.637-12.186 106.378-11.3511 106.119-10.5161 105.989-9.59326 105.989-8.58252 105.989-7.52783 106.094-6.58301 106.305-5.74805 106.516-4.91309 106.846-4.20557 107.294-3.62549 107.742-3.04541 108.316-2.60156 109.015-2.29395 109.713-1.98633 110.55-1.83252 111.526-1.83252 111.693-1.83252 111.873-1.84131 112.067-1.85889 112.26-1.87646 112.453-1.90063 112.647-1.9314 112.84-1.96216 113.027-1.99951 113.207-2.04346 113.387-2.0874 113.548-2.13574 113.688-2.18848L113.688-7.67285 110.168-7.67285 110.168-9.61084 116.008-9.61084 116.008-0.804199C115.648-0.637207 115.268-0.487793 114.868-0.355957 114.468-0.224121 114.059-0.114258 113.642-0.0263672 113.225 0.0615234 112.809 0.127441 112.396 0.171387 111.983 0.215332 111.583 0.237305 111.196 0.237305 110.019 0.237305 108.957 0.0527344 108.013-0.316406 107.068-0.685547 106.264-1.23267 105.6-1.95776 104.936-2.68286 104.427-3.58594 104.071-4.66699 103.715-5.74805 103.537-7.00049 103.537-8.42432 103.537-9.83936 103.735-11.1072 104.13-12.2278 104.526-13.3484 105.081-14.2976 105.798-15.0754 106.514-15.8533 107.375-16.4465 108.382-16.8552 109.388-17.2639 110.498-17.4683 111.711-17.4683 112.484-17.4683 113.22-17.4001 113.919-17.2639 114.618-17.1277 115.288-16.9102 115.929-16.6113ZM131.189 0 128.539 0 125.969-5.51074C125.775-5.93262 125.577-6.28198 125.375-6.55884 125.173-6.83569 124.956-7.05542 124.723-7.21802 124.49-7.38061 124.235-7.49707 123.958-7.56738 123.681-7.63769 123.371-7.67285 123.029-7.67285L121.921-7.67285 121.921 0 119.575 0 119.575-17.231 124.189-17.231C125.191-17.231 126.052-17.1211 126.773-16.9014 127.493-16.6816 128.085-16.374 128.546-15.9785 129.007-15.583 129.346-15.1062 129.561-14.5481 129.776-13.99 129.884-13.3726 129.884-12.6958 129.884-12.1597 129.805-11.6521 129.647-11.1731 129.489-10.6941 129.253-10.259 128.941-9.86792 128.629-9.47681 128.243-9.13843 127.781-8.85278 127.32-8.56714 126.79-8.354 126.193-8.21338 126.676-8.04639 127.087-7.75415 127.425-7.33667 127.764-6.91919 128.109-6.36328 128.46-5.66895ZM127.432-12.498C127.432-13.4209 127.144-14.1108 126.568-14.5679 125.993-15.0249 125.182-15.2534 124.136-15.2534L121.921-15.2534 121.921-9.55811 123.82-9.55811C124.373-9.55811 124.872-9.62183 125.316-9.74927 125.76-9.87671 126.138-10.0657 126.45-10.3162 126.762-10.5667 127.003-10.8743 127.175-11.239 127.346-11.6038 127.432-12.0234 127.432-12.498ZM146.713 0 144.155 0 142.956-3.75732 135.784-3.75732 134.571 0 132.132 0 137.854-17.231 141.07-17.231ZM142.283-5.85352 139.37-15.0688 136.456-5.85352ZM159.784-0.645996C158.404-0.074707 156.959 0.210937 155.447 0.210938 153.012 0.210937 151.143-0.516357 149.837-1.97095 148.532-3.42554 147.88-5.57666 147.88-8.42432 147.88-9.8042 148.06-11.0522 148.42-12.1685 148.78-13.2847 149.295-14.2317 149.963-15.0095 150.631-15.7874 151.439-16.3872 152.388-16.8091 153.338-17.231 154.401-17.4419 155.579-17.4419 156.379-17.4419 157.121-17.3738 157.807-17.2375 158.492-17.1013 159.152-16.8926 159.784-16.6113L159.784-14.3042C159.16-14.647 158.514-14.9084 157.846-15.0886 157.178-15.2688 156.449-15.3589 155.658-15.3589 154.849-15.3589 154.118-15.2073 153.463-14.9041 152.808-14.6008 152.252-14.1614 151.795-13.5857 151.338-13.01 150.986-12.3069 150.74-11.4763 150.494-10.6458 150.371-9.69873 150.371-8.63525 150.371-6.40283 150.824-4.71973 151.729-3.58594 152.634-2.45215 153.962-1.88525 155.711-1.88525 156.449-1.88525 157.156-1.97095 157.833-2.14233 158.51-2.31372 159.16-2.55322 159.784-2.86084ZM167.569-15.2534 163.601-15.2534 163.601-17.231 173.91-17.231 173.91-15.2534 169.942-15.2534 169.942-2.00391 173.91-2.00391 173.91 0 163.601 0 163.601-2.00391 167.569-2.00391ZM190.713 0 188.155 0 186.956-3.75732 179.784-3.75732 178.571 0 176.132 0 181.854-17.231 185.07-17.231ZM186.283-5.85352 183.37-15.0688 180.456-5.85352ZM203.811-4.66699C203.811-3.84961 203.644-3.1333 203.31-2.51807 202.976-1.90283 202.51-1.39087 201.912-0.982178 201.315-0.573486 200.596-0.268066 199.757-0.065918 198.917 0.13623 197.992 0.237305 196.982 0.237305 196.525 0.237305 196.07 0.219727 195.617 0.18457 195.164 0.149414 194.729 0.105469 194.312 0.0527344 193.894 1.86265e-09 193.501-0.0615234 193.132-0.131836 192.763-0.202148 192.429-0.276855 192.13-0.355957L192.13-2.62354C192.789-2.37744 193.53-2.18408 194.352-2.04346 195.173-1.90283 196.107-1.83252 197.153-1.83252 197.909-1.83252 198.553-1.89185 199.084-2.0105 199.616-2.12915 200.051-2.30493 200.39-2.53784 200.728-2.77075 200.974-3.0542 201.128-3.38818 201.282-3.72217 201.359-4.10449 201.359-4.53516 201.359-5.00098 201.229-5.39868 200.97-5.72827 200.71-6.05786 200.37-6.35229 199.948-6.61157 199.526-6.87085 199.045-7.10815 198.504-7.32349 197.964-7.53882 197.412-7.76074 196.85-7.98926 196.287-8.21777 195.736-8.46606 195.195-8.73413 194.655-9.0022 194.174-9.3186 193.752-9.68335 193.33-10.0481 192.989-10.4766 192.73-10.9688 192.471-11.4609 192.341-12.0454 192.341-12.7222 192.341-13.311 192.464-13.8911 192.71-14.4624 192.956-15.0337 193.339-15.5413 193.857-15.9851 194.376-16.429 195.041-16.7871 195.854-17.0596 196.667-17.332 197.636-17.4683 198.761-17.4683 199.051-17.4683 199.366-17.4551 199.704-17.4287 200.042-17.4023 200.385-17.365 200.732-17.3167 201.08-17.2683 201.422-17.2134 201.761-17.1519 202.099-17.0903 202.413-17.0244 202.703-16.9541L202.703-14.8447C202.027-15.0381 201.35-15.1853 200.673-15.2864 199.996-15.3875 199.341-15.438 198.709-15.438 197.364-15.438 196.375-15.2139 195.742-14.7656 195.11-14.3174 194.793-13.7153 194.793-12.9595 194.793-12.4937 194.923-12.0937 195.182-11.7598 195.441-11.4258 195.782-11.127 196.204-10.8633 196.626-10.5996 197.107-10.3601 197.647-10.1448 198.188-9.92944 198.739-9.70752 199.302-9.479 199.864-9.25049 200.416-9 200.956-8.72754 201.497-8.45508 201.978-8.13208 202.4-7.75854 202.822-7.38501 203.163-6.94775 203.422-6.44678 203.681-5.9458 203.811-5.35254 203.811-4.66699ZM233.395-11.9575C233.395-11.2544 233.263-10.5579 232.999-9.86792 232.735-9.17798 232.327-8.56055 231.773-8.01562 231.219-7.4707 230.512-7.02905 229.65-6.69067 228.789-6.35229 227.761-6.1831 226.565-6.18311L224.43-6.18311 224.43 0 222.083 0 222.083-17.231 226.935-17.231C227.787-17.231 228.605-17.1365 229.387-16.9475 230.169-16.7585 230.857-16.4531 231.45-16.0312 232.043-15.6094 232.516-15.0645 232.867-14.3965 233.219-13.7285 233.395-12.9155 233.395-11.9575ZM230.956-11.8521C230.956-12.9595 230.593-13.8076 229.868-14.3965 229.143-14.9854 228.13-15.2798 226.829-15.2798L224.43-15.2798 224.43-8.18701 226.618-8.18701C228.007-8.18701 229.077-8.49023 229.828-9.09668 230.58-9.70312 230.956-10.6216 230.956-11.8521ZM248.786-8.72754C248.786-7.18066 248.604-5.84473 248.239-4.71973 247.874-3.59473 247.382-2.66528 246.763-1.9314 246.143-1.19751 245.418-0.652588 244.587-0.296631 243.757 0.0593262 242.88 0.237305 241.957 0.237305 240.85 0.237305 239.885 0.0373535 239.063-0.362549 238.242-0.762451 237.56-1.34033 237.02-2.09619 236.479-2.85205 236.077-3.7727 235.814-4.85815 235.55-5.9436 235.418-7.16748 235.418-8.52979 235.418-10.0591 235.598-11.3862 235.959-12.5112 236.319-13.6362 236.809-14.5657 237.429-15.2996 238.048-16.0334 238.771-16.5784 239.597-16.9343 240.424-17.2903 241.298-17.4683 242.221-17.4683 243.328-17.4683 244.293-17.2661 245.115-16.8618 245.936-16.4575 246.62-15.8796 247.165-15.1282 247.71-14.3767 248.116-13.4604 248.384-12.3794 248.652-11.2983 248.786-10.0811 248.786-8.72754ZM246.347-8.55615C246.347-9.56689 246.27-10.4919 246.117-11.3313 245.963-12.1707 245.715-12.8936 245.372-13.5 245.029-14.1064 244.587-14.5767 244.047-14.9106 243.506-15.2446 242.854-15.4116 242.089-15.4116 241.351-15.4116 240.716-15.2336 240.184-14.8777 239.652-14.5217 239.215-14.0383 238.872-13.4275 238.529-12.8166 238.275-12.1003 238.108-11.2786 237.941-10.4568 237.857-9.58447 237.857-8.66162 237.857-7.64209 237.936-6.71265 238.094-5.87329 238.253-5.03394 238.501-4.31323 238.839-3.71118 239.178-3.10913 239.615-2.64111 240.151-2.30713 240.687-1.97314 241.333-1.80615 242.089-1.80615 242.827-1.80615 243.465-1.98413 244.001-2.34009 244.537-2.69604 244.978-3.17944 245.326-3.79028 245.673-4.40112 245.93-5.11523 246.097-5.93262 246.264-6.75 246.347-7.62451 246.347-8.55615ZM263.189 0 260.539 0 257.969-5.51074C257.775-5.93262 257.578-6.28198 257.375-6.55884 257.173-6.83569 256.956-7.05542 256.723-7.21802 256.49-7.38061 256.235-7.49707 255.958-7.56738 255.681-7.63769 255.371-7.67285 255.029-7.67285L253.921-7.67285 253.921 0 251.575 0 251.575-17.231 256.189-17.231C257.191-17.231 258.052-17.1211 258.773-16.9014 259.494-16.6816 260.085-16.374 260.546-15.9785 261.007-15.583 261.346-15.1062 261.561-14.5481 261.776-13.99 261.884-13.3726 261.884-12.6958 261.884-12.1597 261.805-11.6521 261.647-11.1731 261.489-10.6941 261.254-10.259 260.942-9.86792 260.63-9.47681 260.243-9.13843 259.781-8.85278 259.32-8.56714 258.79-8.354 258.193-8.21338 258.676-8.04639 259.087-7.75415 259.425-7.33667 259.764-6.91919 260.109-6.36328 260.46-5.66895ZM259.432-12.498C259.432-13.4209 259.144-14.1108 258.568-14.5679 257.993-15.0249 257.182-15.2534 256.136-15.2534L253.921-15.2534 253.921-9.55811 255.82-9.55811C256.373-9.55811 256.872-9.62183 257.316-9.74927 257.76-9.87671 258.138-10.0657 258.45-10.3162 258.762-10.5667 259.004-10.8743 259.175-11.239 259.346-11.6038 259.432-12.0234 259.432-12.498ZM291.653 0 281.738 0 281.738-17.231 284.125-17.231 284.125-2.00391 291.653-2.00391ZM306.319 0 296.405 0 296.405-17.231 298.791-17.231 298.791-2.00391 306.319-2.00391ZM320.445 0 310.65 0 310.65-17.231 320.445-17.231 320.445-15.2534 312.997-15.2534 312.997-9.91406 320.155-9.91406 320.155-7.93652 312.997-7.93652 312.997-2.00391 320.445-2.00391ZM335.929-14.2778C335.288-14.6206 334.629-14.8865 333.952-15.0754 333.275-15.2644 332.537-15.3589 331.737-15.3589 330.823-15.3589 330.01-15.1963 329.298-14.8711 328.586-14.5459 327.986-14.0867 327.498-13.4934 327.011-12.9001 326.637-12.186 326.378-11.3511 326.119-10.5161 325.989-9.59326 325.989-8.58252 325.989-7.52783 326.094-6.58301 326.305-5.74805 326.516-4.91309 326.846-4.20557 327.294-3.62549 327.742-3.04541 328.316-2.60156 329.015-2.29395 329.713-1.98633 330.55-1.83252 331.526-1.83252 331.693-1.83252 331.873-1.84131 332.067-1.85889 332.26-1.87646 332.453-1.90063 332.647-1.9314 332.84-1.96216 333.027-1.99951 333.207-2.04346 333.387-2.0874 333.547-2.13574 333.688-2.18848L333.688-7.67285 330.168-7.67285 330.168-9.61084 336.008-9.61084 336.008-0.804199C335.648-0.637207 335.268-0.487793 334.868-0.355957 334.468-0.224121 334.059-0.114258 333.642-0.0263672 333.224 0.0615234 332.809 0.127441 332.396 0.171387 331.983 0.215332 331.583 0.237305 331.196 0.237305 330.019 0.237305 328.957 0.0527344 328.013-0.316406 327.068-0.685547 326.264-1.23267 325.6-1.95776 324.936-2.68286 324.427-3.58594 324.071-4.66699 323.715-5.74805 323.537-7.00049 323.537-8.42432 323.537-9.83936 323.734-11.1072 324.13-12.2278 324.526-13.3484 325.081-14.2976 325.798-15.0754 326.514-15.8533 327.375-16.4465 328.382-16.8552 329.388-17.2639 330.498-17.4683 331.711-17.4683 332.484-17.4683 333.22-17.4001 333.919-17.2639 334.618-17.1277 335.288-16.9102 335.929-16.6113ZM352.046 0 349.489 0 348.289-3.75732 341.117-3.75732 339.904 0 337.465 0 343.187-17.231 346.404-17.231ZM347.617-5.85352 344.703-15.0688 341.789-5.85352ZM365.856 0 363.206 0 360.635-5.51074C360.442-5.93262 360.244-6.28198 360.042-6.55884 359.84-6.83569 359.622-7.05542 359.389-7.21802 359.156-7.38061 358.902-7.49707 358.625-7.56738 358.348-7.63769 358.038-7.67285 357.695-7.67285L356.588-7.67285 356.588 0 354.241 0 354.241-17.231 358.855-17.231C359.857-17.231 360.719-17.1211 361.439-16.9014 362.16-16.6816 362.751-16.374 363.213-15.9785 363.674-15.583 364.012-15.1062 364.228-14.5481 364.443-13.99 364.551-13.3726 364.551-12.6958 364.551-12.1597 364.472-11.6521 364.313-11.1731 364.155-10.6941 363.92-10.259 363.608-9.86792 363.296-9.47681 362.909-9.13843 362.448-8.85278 361.987-8.56714 361.457-8.354 360.859-8.21338 361.343-8.04639 361.754-7.75415 362.092-7.33667 362.43-6.91919 362.775-6.36328 363.127-5.66895ZM362.099-12.498C362.099-13.4209 361.811-14.1108 361.235-14.5679 360.659-15.0249 359.849-15.2534 358.803-15.2534L356.588-15.2534 356.588-9.55811 358.486-9.55811C359.04-9.55811 359.539-9.62183 359.983-9.74927 360.426-9.87671 360.804-10.0657 361.116-10.3162 361.428-10.5667 361.67-10.8743 361.842-11.239 362.013-11.6038 362.099-12.0234 362.099-12.498ZM396.046 0 393.489 0 392.289-3.75732 385.117-3.75732 383.904 0 381.465 0 387.187-17.231 390.404-17.231ZM391.616-5.85352 388.703-15.0688 385.789-5.85352ZM402.157 0.158203C401.243 0.0263672 400.447-0.263672 399.77-0.711914 399.094-1.16016 398.531-1.75122 398.083-2.48511 397.635-3.21899 397.301-4.08472 397.081-5.08228 396.861-6.07983 396.751-7.18506 396.751-8.39795 396.751-9.9624 396.932-11.3159 397.292-12.4585 397.652-13.6011 398.142-14.5437 398.762-15.2864 399.382-16.0291 400.104-16.5784 400.931-16.9343 401.757-17.2903 402.631-17.4683 403.554-17.4683 404.662-17.4683 405.626-17.2683 406.448-16.8684 407.27-16.4685 407.953-15.8928 408.498-15.1414 409.043-14.3899 409.449-13.4802 409.717-12.4124 409.986-11.3445 410.12-10.1426 410.12-8.80664 410.12-7.40039 409.97-6.16772 409.671-5.10864 409.372-4.04956 408.964-3.15088 408.445-2.4126 407.927-1.67432 407.316-1.09424 406.613-0.672363 405.91-0.250488 405.154 0.0263672 404.345 0.158203 404.477 0.931641 404.785 1.55347 405.268 2.02368 405.751 2.4939 406.433 2.729 407.311 2.729 407.733 2.729 408.149 2.65869 408.557 2.51807 408.966 2.37744 409.381 2.14014 409.803 1.80615L410.845 3.42773C410.265 3.90234 409.667 4.24072 409.052 4.44287 408.436 4.64502 407.804 4.74609 407.153 4.74609 406.45 4.74609 405.804 4.64941 405.215 4.45605 404.626 4.2627 404.114 3.97485 403.679 3.59253 403.244 3.2102 402.895 2.7312 402.631 2.15552 402.368 1.57983 402.209 0.914062 402.157 0.158203ZM407.681-8.52979C407.681-9.54932 407.604-10.4788 407.45-11.3181 407.296-12.1575 407.048-12.8782 406.705-13.4802 406.362-14.0823 405.921-14.5503 405.38-14.8843 404.84-15.2183 404.187-15.3853 403.422-15.3853 402.684-15.3853 402.049-15.2095 401.517-14.8579 400.986-14.5063 400.548-14.0295 400.206-13.4275 399.863-12.8254 399.608-12.1223 399.441-11.3181 399.274-10.5139 399.19-9.65918 399.19-8.75391 399.19-7.70801 399.269-6.76099 399.428-5.91284 399.586-5.0647 399.834-4.3374 400.173-3.73096 400.511-3.12451 400.948-2.65649 401.484-2.3269 402.02-1.99731 402.666-1.83252 403.422-1.83252 404.161-1.83252 404.798-2.0083 405.334-2.35986 405.87-2.71143 406.312-3.19043 406.659-3.79688 407.006-4.40332 407.263-5.11304 407.43-5.92603 407.597-6.73901 407.681-7.60693 407.681-8.52979ZM424.087-5.99854C424.087-5.04932 423.953-4.19019 423.685-3.42114 423.417-2.6521 423.024-1.99731 422.505-1.45679 421.987-0.91626 421.352-0.498779 420.6-0.204346 419.849 0.0900879 418.985 0.237305 418.01 0.237305 416.938 0.237305 416.028 0.0966797 415.281-0.18457 414.534-0.46582 413.925-0.863525 413.455-1.37769 412.985-1.89185 412.642-2.50928 412.427-3.22998 412.211-3.95068 412.104-4.75488 412.104-5.64258L412.104-17.231 414.45-17.231 414.45-5.82715C414.45-5.15039 414.514-4.55713 414.641-4.04736 414.769-3.5376 414.978-3.11133 415.268-2.76855 415.558-2.42578 415.933-2.1665 416.395-1.99072 416.856-1.81494 417.421-1.72705 418.089-1.72705 419.337-1.72705 420.258-2.0874 420.851-2.80811 421.444-3.52881 421.741-4.54395 421.741-5.85352L421.741-17.231 424.087-17.231ZM431.569-15.2534 427.601-15.2534 427.601-17.231 437.91-17.231 437.91-15.2534 433.942-15.2534 433.942-2.00391 437.91-2.00391 437.91 0 427.601 0 427.601-2.00391 431.569-2.00391ZM437.489-21.8716 433.731-19.0635 431.385-19.0635 434.166-21.8716ZM448.78-18.6284 448.424-5.04932 446.394-5.04932 445.998-18.6284ZM447.396-3.24316C447.633-3.24316 447.857-3.19702 448.068-3.10474 448.279-3.01245 448.462-2.88721 448.615-2.729 448.769-2.5708 448.892-2.38403 448.985-2.1687 449.077-1.95337 449.123-1.72705 449.123-1.48975 449.123-1.25244 449.077-1.02832 448.985-0.817383 448.892-0.606445 448.769-0.424072 448.615-0.270264 448.462-0.116455 448.279 0.0065918 448.068 0.098877 447.857 0.191162 447.633 0.237305 447.396 0.237305 447.15 0.237305 446.921 0.191162 446.71 0.098877 446.499 0.0065918 446.315-0.116455 446.157-0.270264 445.998-0.424072 445.873-0.606445 445.781-0.817383 445.689-1.02832 445.642-1.25244 445.642-1.48975 445.642-1.72705 445.689-1.95337 445.781-2.1687 445.873-2.38403 445.998-2.5708 446.157-2.729 446.315-2.88721 446.499-3.01245 446.71-3.10474 446.921-3.19702 447.15-3.24316 447.396-3.24316ZM463.447-18.6284 463.091-5.04932 461.061-5.04932 460.665-18.6284ZM462.063-3.24316C462.3-3.24316 462.524-3.19702 462.735-3.10474 462.946-3.01245 463.128-2.88721 463.282-2.729 463.436-2.5708 463.559-2.38403 463.651-2.1687 463.743-1.95337 463.79-1.72705 463.79-1.48975 463.79-1.25244 463.743-1.02832 463.651-0.817383 463.559-0.606445 463.436-0.424072 463.282-0.270264 463.128-0.116455 462.946 0.0065918 462.735 0.098877 462.524 0.191162 462.3 0.237305 462.063 0.237305 461.816 0.237305 461.588 0.191162 461.377 0.098877 461.166 0.0065918 460.982-0.116455 460.823-0.270264 460.665-0.424072 460.54-0.606445 460.448-0.817383 460.355-1.02832 460.309-1.25244 460.309-1.48975 460.309-1.72705 460.355-1.95337 460.448-2.1687 460.54-2.38403 460.665-2.5708 460.823-2.729 460.982-2.88721 461.166-3.01245 461.377-3.10474 461.588-3.19702 461.816-3.24316 462.063-3.24316Z" fill="#2F5597" transform="translate(30.5057 40)"/><path d="M13.7109-15.2271 8.60889-15.2271 8.60889 0 6.23584 0 6.23584-15.2271 1.13379-15.2271 1.13379-17.231 13.7109-17.231ZM27.112 0 17.3166 0 17.3166-17.231 27.112-17.231 27.112-15.2534 19.6632-15.2534 19.6632-9.91406 26.8219-9.91406 26.8219-7.93652 19.6632-7.93652 19.6632-2.00391 27.112-2.00391ZM50.2358-15.2534 46.2676-15.2534 46.2676-17.231 56.5771-17.231 56.5771-15.2534 52.6089-15.2534 52.6089-2.00391 56.5771-2.00391 56.5771 0 46.2676 0 46.2676-2.00391 50.2358-2.00391ZM71.9557 0 68.8971 0 63.8742-10.7446 62.424-14.1987 62.424-5.51074 62.424 0 60.2355 0 60.2355-17.231 63.2546-17.231 68.0402-7.05322 69.7673-3.11133 69.7673-12.3398 69.7673-17.231 71.9557-17.231ZM88.1253-17.231 82.2718 0 79.1077 0 73.3861-17.231 76.036-17.231 79.7537-5.61621 80.8084-2.21484 81.8895-5.61621 85.6204-17.231ZM94.2358-15.2534 90.2676-15.2534 90.2676-17.231 100.577-17.231 100.577-15.2534 96.6089-15.2534 96.6089-2.00391 100.577-2.00391 100.577 0 90.2676 0 90.2676-2.00391 94.2358-2.00391ZM116.378-15.2271 111.276-15.2271 111.276 0 108.903 0 108.903-15.2271 103.8-15.2271 103.8-17.231 116.378-17.231ZM131.453-8.72754C131.453-7.18066 131.271-5.84473 130.906-4.71973 130.541-3.59473 130.049-2.66528 129.429-1.9314 128.81-1.19751 128.085-0.652588 127.254-0.296631 126.423 0.0593262 125.547 0.237305 124.624 0.237305 123.516 0.237305 122.552 0.0373535 121.73-0.362549 120.908-0.762451 120.227-1.34033 119.687-2.09619 119.146-2.85205 118.744-3.7727 118.48-4.85815 118.217-5.9436 118.085-7.16748 118.085-8.52979 118.085-10.0591 118.265-11.3862 118.625-12.5112 118.986-13.6362 119.476-14.5657 120.095-15.2996 120.715-16.0334 121.438-16.5784 122.264-16.9343 123.09-17.2903 123.965-17.4683 124.888-17.4683 125.995-17.4683 126.96-17.2661 127.781-16.8618 128.603-16.4575 129.286-15.8796 129.831-15.1282 130.376-14.3767 130.783-13.4604 131.051-12.3794 131.319-11.2983 131.453-10.0811 131.453-8.72754ZM129.014-8.55615C129.014-9.56689 128.937-10.4919 128.783-11.3313 128.629-12.1707 128.381-12.8936 128.038-13.5 127.696-14.1064 127.254-14.5767 126.713-14.9106 126.173-15.2446 125.52-15.4116 124.756-15.4116 124.017-15.4116 123.382-15.2336 122.851-14.8777 122.319-14.5217 121.882-14.0383 121.539-13.4275 121.196-12.8166 120.941-12.1003 120.774-11.2786 120.607-10.4568 120.524-9.58447 120.524-8.66162 120.524-7.64209 120.603-6.71265 120.761-5.87329 120.919-5.03394 121.168-4.31323 121.506-3.71118 121.844-3.10913 122.282-2.64111 122.818-2.30713 123.354-1.97314 124-1.80615 124.756-1.80615 125.494-1.80615 126.131-1.98413 126.667-2.34009 127.203-2.69604 127.645-3.17944 127.992-3.79028 128.339-4.40112 128.597-5.11523 128.764-5.93262 128.93-6.75 129.014-7.62451 129.014-8.55615ZM161.38 0 158.822 0 157.622-3.75732 150.45-3.75732 149.237 0 146.799 0 152.52-17.231 155.737-17.231ZM156.95-5.85352 154.036-15.0688 151.123-5.85352ZM189.144-4.66699C189.144-3.84961 188.977-3.1333 188.643-2.51807 188.309-1.90283 187.843-1.39087 187.246-0.982178 186.648-0.573486 185.929-0.268066 185.09-0.065918 184.251 0.13623 183.326 0.237305 182.315 0.237305 181.858 0.237305 181.403 0.219727 180.95 0.18457 180.498 0.149414 180.063 0.105469 179.645 0.0527344 179.228 1.86265e-09 178.834-0.0615234 178.465-0.131836 178.096-0.202148 177.762-0.276855 177.463-0.355957L177.463-2.62354C178.123-2.37744 178.863-2.18408 179.685-2.04346 180.507-1.90283 181.44-1.83252 182.486-1.83252 183.242-1.83252 183.886-1.89185 184.418-2.0105 184.949-2.12915 185.385-2.30493 185.723-2.53784 186.061-2.77075 186.307-3.0542 186.461-3.38818 186.615-3.72217 186.692-4.10449 186.692-4.53516 186.692-5.00098 186.562-5.39868 186.303-5.72827 186.044-6.05786 185.703-6.35229 185.281-6.61157 184.859-6.87085 184.378-7.10815 183.838-7.32349 183.297-7.53882 182.746-7.76074 182.183-7.98926 181.621-8.21777 181.069-8.46606 180.529-8.73413 179.988-9.0022 179.507-9.3186 179.085-9.68335 178.663-10.0481 178.323-10.4766 178.063-10.9688 177.804-11.4609 177.674-12.0454 177.674-12.7222 177.674-13.311 177.797-13.8911 178.043-14.4624 178.29-15.0337 178.672-15.5413 179.19-15.9851 179.709-16.429 180.375-16.7871 181.188-17.0596 182.001-17.332 182.97-17.4683 184.095-17.4683 184.385-17.4683 184.699-17.4551 185.037-17.4287 185.376-17.4023 185.719-17.365 186.066-17.3167 186.413-17.2683 186.756-17.2134 187.094-17.1519 187.432-17.0903 187.747-17.0244 188.037-16.9541L188.037-14.8447C187.36-15.0381 186.683-15.1853 186.006-15.2864 185.33-15.3875 184.675-15.438 184.042-15.438 182.697-15.438 181.708-15.2139 181.076-14.7656 180.443-14.3174 180.126-13.7153 180.126-12.9595 180.126-12.4937 180.256-12.0937 180.515-11.7598 180.775-11.4258 181.115-11.127 181.537-10.8633 181.959-10.5996 182.44-10.3601 182.981-10.1448 183.521-9.92944 184.073-9.70752 184.635-9.479 185.198-9.25049 185.749-9 186.29-8.72754 186.83-8.45508 187.312-8.13208 187.733-7.75854 188.155-7.38501 188.496-6.94775 188.755-6.44678 189.014-5.9458 189.144-5.35254 189.144-4.66699ZM203.112 0 193.317 0 193.317-17.231 203.112-17.231 203.112-15.2534 195.663-15.2534 195.663-9.91406 202.822-9.91406 202.822-7.93652 195.663-7.93652 195.663-2.00391 203.112-2.00391ZM218.596-14.2778C217.954-14.6206 217.295-14.8865 216.619-15.0754 215.942-15.2644 215.203-15.3589 214.404-15.3589 213.49-15.3589 212.677-15.1963 211.965-14.8711 211.253-14.5459 210.653-14.0867 210.165-13.4934 209.677-12.9001 209.304-12.186 209.045-11.3511 208.785-10.5161 208.656-9.59326 208.656-8.58252 208.656-7.52783 208.761-6.58301 208.972-5.74805 209.183-4.91309 209.513-4.20557 209.961-3.62549 210.409-3.04541 210.983-2.60156 211.681-2.29395 212.38-1.98633 213.217-1.83252 214.193-1.83252 214.36-1.83252 214.54-1.84131 214.733-1.85889 214.927-1.87646 215.12-1.90063 215.313-1.9314 215.507-1.96216 215.693-1.99951 215.874-2.04346 216.054-2.0874 216.214-2.13574 216.355-2.18848L216.355-7.67285 212.835-7.67285 212.835-9.61084 218.675-9.61084 218.675-0.804199C218.315-0.637207 217.935-0.487793 217.535-0.355957 217.135-0.224121 216.726-0.114258 216.309-0.0263672 215.891 0.0615234 215.476 0.127441 215.063 0.171387 214.65 0.215332 214.25 0.237305 213.863 0.237305 212.685 0.237305 211.624 0.0527344 210.679-0.316406 209.734-0.685547 208.93-1.23267 208.267-1.95776 207.603-2.68286 207.093-3.58594 206.737-4.66699 206.381-5.74805 206.203-7.00049 206.203-8.42432 206.203-9.83936 206.401-11.1072 206.797-12.2278 207.192-13.3484 207.748-14.2976 208.464-15.0754 209.181-15.8533 210.042-16.4465 211.048-16.8552 212.055-17.2639 213.164-17.4683 214.377-17.4683 215.151-17.4683 215.887-17.4001 216.586-17.2639 217.284-17.1277 217.954-16.9102 218.596-16.6113ZM233.421-5.99854C233.421-5.04932 233.287-4.19019 233.019-3.42114 232.751-2.6521 232.357-1.99731 231.839-1.45679 231.32-0.91626 230.685-0.498779 229.934-0.204346 229.182 0.0900879 228.319 0.237305 227.343 0.237305 226.271 0.237305 225.361 0.0966797 224.614-0.18457 223.867-0.46582 223.259-0.863525 222.788-1.37769 222.318-1.89185 221.975-2.50928 221.76-3.22998 221.545-3.95068 221.437-4.75488 221.437-5.64258L221.437-17.231 223.784-17.231 223.784-5.82715C223.784-5.15039 223.847-4.55713 223.975-4.04736 224.102-3.5376 224.311-3.11133 224.601-2.76855 224.891-2.42578 225.267-2.1665 225.728-1.99072 226.19-1.81494 226.754-1.72705 227.422-1.72705 228.67-1.72705 229.591-2.0874 230.184-2.80811 230.778-3.52881 231.074-4.54395 231.074-5.85352L231.074-17.231 233.421-17.231ZM240.903-15.2534 236.934-15.2534 236.934-17.231 247.244-17.231 247.244-15.2534 243.276-15.2534 243.276-2.00391 247.244-2.00391 247.244 0 236.934 0 236.934-2.00391 240.903-2.00391ZM263.189 0 260.539 0 257.969-5.51074C257.775-5.93262 257.578-6.28198 257.375-6.55884 257.173-6.83569 256.956-7.05542 256.723-7.21802 256.49-7.38061 256.235-7.49707 255.958-7.56738 255.681-7.63769 255.371-7.67285 255.029-7.67285L253.921-7.67285 253.921 0 251.575 0 251.575-17.231 256.189-17.231C257.191-17.231 258.052-17.1211 258.773-16.9014 259.494-16.6816 260.085-16.374 260.546-15.9785 261.007-15.583 261.346-15.1062 261.561-14.5481 261.776-13.99 261.884-13.3726 261.884-12.6958 261.884-12.1597 261.805-11.6521 261.647-11.1731 261.489-10.6941 261.254-10.259 260.942-9.86792 260.63-9.47681 260.243-9.13843 259.781-8.85278 259.32-8.56714 258.79-8.354 258.193-8.21338 258.676-8.04639 259.087-7.75415 259.425-7.33667 259.764-6.91919 260.109-6.36328 260.46-5.66895ZM259.432-12.498C259.432-13.4209 259.144-14.1108 258.568-14.5679 257.993-15.0249 257.182-15.2534 256.136-15.2534L253.921-15.2534 253.921-9.55811 255.82-9.55811C256.373-9.55811 256.872-9.62183 257.316-9.74927 257.76-9.87671 258.138-10.0657 258.45-10.3162 258.762-10.5667 259.004-10.8743 259.175-11.239 259.346-11.6038 259.432-12.0234 259.432-12.498ZM278.199 0 275.905 0 275.562-10.7446 275.417-14.8711 274.613-12.4717 272.068-5.61621 270.447-5.61621 268.021-12.208 267.217-14.8711 267.164-10.5601 266.861 0 264.646 0 265.49-17.231 268.272-17.231 270.592-10.7446 271.343-8.55615 272.068-10.7446 274.507-17.231 277.368-17.231ZM291.112 0 281.317 0 281.317-17.231 291.112-17.231 291.112-15.2534 283.663-15.2534 283.663-9.91406 290.822-9.91406 290.822-7.93652 283.663-7.93652 283.663-2.00391 291.112-2.00391ZM320.445 0 310.65 0 310.65-17.231 320.445-17.231 320.445-15.2534 312.997-15.2534 312.997-9.91406 320.155-9.91406 320.155-7.93652 312.997-7.93652 312.997-2.00391 320.445-2.00391ZM335.956 0 332.897 0 327.874-10.7446 326.424-14.1987 326.424-5.51074 326.424 0 324.236 0 324.236-17.231 327.255-17.231 332.04-7.05322 333.767-3.11133 333.767-12.3398 333.767-17.231 335.956-17.231ZM366.199 0 363.905 0 363.562-10.7446 363.417-14.8711 362.613-12.4717 360.068-5.61621 358.447-5.61621 356.021-12.208 355.217-14.8711 355.164-10.5601 354.861 0 352.646 0 353.49-17.231 356.271-17.231 358.592-10.7446 359.343-8.55615 360.068-10.7446 362.507-17.231 365.368-17.231ZM372.902-15.2534 368.934-15.2534 368.934-17.231 379.244-17.231 379.244-15.2534 375.276-15.2534 375.276-2.00391 379.244-2.00391 379.244 0 368.934 0 368.934-2.00391 372.902-2.00391ZM394.477-4.66699C394.477-3.84961 394.31-3.1333 393.976-2.51807 393.642-1.90283 393.177-1.39087 392.579-0.982178 391.981-0.573486 391.263-0.268066 390.423-0.065918 389.584 0.13623 388.659 0.237305 387.648 0.237305 387.191 0.237305 386.736 0.219727 386.284 0.18457 385.831 0.149414 385.396 0.105469 384.979 0.0527344 384.561 1.86265e-09 384.168-0.0615234 383.799-0.131836 383.429-0.202148 383.095-0.276855 382.797-0.355957L382.797-2.62354C383.456-2.37744 384.196-2.18408 385.018-2.04346 385.84-1.90283 386.774-1.83252 387.82-1.83252 388.575-1.83252 389.219-1.89185 389.751-2.0105 390.283-2.12915 390.718-2.30493 391.056-2.53784 391.395-2.77075 391.641-3.0542 391.794-3.38818 391.948-3.72217 392.025-4.10449 392.025-4.53516 392.025-5.00098 391.896-5.39868 391.636-5.72827 391.377-6.05786 391.036-6.35229 390.615-6.61157 390.193-6.87085 389.711-7.10815 389.171-7.32349 388.63-7.53882 388.079-7.76074 387.516-7.98926 386.954-8.21777 386.402-8.46606 385.862-8.73413 385.321-9.0022 384.84-9.3186 384.418-9.68335 383.996-10.0481 383.656-10.4766 383.397-10.9688 383.137-11.4609 383.008-12.0454 383.008-12.7222 383.008-13.311 383.131-13.8911 383.377-14.4624 383.623-15.0337 384.005-15.5413 384.524-15.9851 385.042-16.429 385.708-16.7871 386.521-17.0596 387.334-17.332 388.303-17.4683 389.428-17.4683 389.718-17.4683 390.032-17.4551 390.371-17.4287 390.709-17.4023 391.052-17.365 391.399-17.3167 391.746-17.2683 392.089-17.2134 392.427-17.1519 392.766-17.0903 393.08-17.0244 393.37-16.9541L393.37-14.8447C392.693-15.0381 392.016-15.1853 391.34-15.2864 390.663-15.3875 390.008-15.438 389.375-15.438 388.031-15.438 387.042-15.2139 386.409-14.7656 385.776-14.3174 385.46-13.7153 385.46-12.9595 385.46-12.4937 385.589-12.0937 385.849-11.7598 386.108-11.4258 386.448-11.127 386.87-10.8633 387.292-10.5996 387.773-10.3601 388.314-10.1448 388.854-9.92944 389.406-9.70752 389.969-9.479 390.531-9.25049 391.083-9 391.623-8.72754 392.164-8.45508 392.645-8.13208 393.067-7.75854 393.489-7.38501 393.829-6.94775 394.088-6.44678 394.348-5.9458 394.477-5.35254 394.477-4.66699ZM424.523 0 421.873 0 419.302-5.51074C419.108-5.93262 418.911-6.28198 418.709-6.55884 418.506-6.83569 418.289-7.05542 418.056-7.21802 417.823-7.38061 417.568-7.49707 417.291-7.56738 417.014-7.63769 416.705-7.67285 416.362-7.67285L415.254-7.67285 415.254 0 412.908 0 412.908-17.231 417.522-17.231C418.524-17.231 419.385-17.1211 420.106-16.9014 420.827-16.6816 421.418-16.374 421.879-15.9785 422.341-15.583 422.679-15.1062 422.894-14.5481 423.11-13.99 423.217-13.3726 423.217-12.6958 423.217-12.1597 423.138-11.6521 422.98-11.1731 422.822-10.6941 422.587-10.259 422.275-9.86792 421.963-9.47681 421.576-9.13843 421.115-8.85278 420.653-8.56714 420.124-8.354 419.526-8.21338 420.009-8.04639 420.42-7.75415 420.759-7.33667 421.097-6.91919 421.442-6.36328 421.794-5.66895ZM420.765-12.498C420.765-13.4209 420.477-14.1108 419.902-14.5679 419.326-15.0249 418.515-15.2534 417.469-15.2534L415.254-15.2534 415.254-9.55811 417.153-9.55811C417.707-9.55811 418.205-9.62183 418.649-9.74927 419.093-9.87671 419.471-10.0657 419.783-10.3162 420.095-10.5667 420.337-10.8743 420.508-11.239 420.68-11.6038 420.765-12.0234 420.765-12.498ZM437.779 0 427.983 0 427.983-17.231 437.779-17.231 437.779-15.2534 430.33-15.2534 430.33-9.91406 437.489-9.91406 437.489-7.93652 430.33-7.93652 430.33-2.00391 437.779-2.00391ZM453.882-8.80664C453.882-7.98047 453.818-7.18945 453.691-6.43359 453.564-5.67773 453.359-4.97461 453.078-4.32422 452.797-3.67383 452.432-3.08276 451.984-2.55103 451.536-2.01929 450.986-1.56445 450.336-1.18652 449.685-0.808594 448.93-0.516357 448.068-0.309814 447.207-0.103271 446.227 0 445.128 0L441.437 0 441.437-17.231 445.88-17.231C448.569-17.231 450.575-16.5388 451.898-15.1545 453.221-13.7703 453.882-11.6543 453.882-8.80664ZM451.417-8.63525C451.417-9.85693 451.303-10.8896 451.074-11.7334 450.846-12.5771 450.498-13.2583 450.033-13.7769 449.567-14.2954 448.982-14.6711 448.279-14.9041 447.576-15.137 446.75-15.2534 445.801-15.2534L443.784-15.2534 443.784-2.03027 445.537-2.03027C449.457-2.03027 451.417-4.23193 451.417-8.63525ZM467.112 0 457.316 0 457.316-17.231 467.112-17.231 467.112-15.2534 459.663-15.2534 459.663-9.91406 466.822-9.91406 466.822-7.93652 459.663-7.93652 459.663-2.00391 467.112-2.00391ZM482.477-4.66699C482.477-3.84961 482.31-3.1333 481.976-2.51807 481.642-1.90283 481.176-1.39087 480.579-0.982178 479.981-0.573486 479.263-0.268066 478.423-0.065918 477.584 0.13623 476.659 0.237305 475.648 0.237305 475.191 0.237305 474.736 0.219727 474.284 0.18457 473.831 0.149414 473.396 0.105469 472.978 0.0527344 472.561 1.86265e-09 472.168-0.0615234 471.799-0.131836 471.429-0.202148 471.095-0.276855 470.797-0.355957L470.797-2.62354C471.456-2.37744 472.196-2.18408 473.018-2.04346 473.84-1.90283 474.774-1.83252 475.82-1.83252 476.575-1.83252 477.219-1.89185 477.751-2.0105 478.283-2.12915 478.718-2.30493 479.056-2.53784 479.394-2.77075 479.641-3.0542 479.794-3.38818 479.948-3.72217 480.025-4.10449 480.025-4.53516 480.025-5.00098 479.895-5.39868 479.636-5.72827 479.377-6.05786 479.036-6.35229 478.614-6.61157 478.193-6.87085 477.711-7.10815 477.171-7.32349 476.63-7.53882 476.079-7.76074 475.516-7.98926 474.954-8.21777 474.402-8.46606 473.862-8.73413 473.321-9.0022 472.84-9.3186 472.418-9.68335 471.996-10.0481 471.656-10.4766 471.396-10.9688 471.137-11.4609 471.008-12.0454 471.008-12.7222 471.008-13.311 471.131-13.8911 471.377-14.4624 471.623-15.0337 472.005-15.5413 472.524-15.9851 473.042-16.429 473.708-16.7871 474.521-17.0596 475.334-17.332 476.303-17.4683 477.428-17.4683 477.718-17.4683 478.032-17.4551 478.371-17.4287 478.709-17.4023 479.052-17.365 479.399-17.3167 479.746-17.2683 480.089-17.2134 480.427-17.1519 480.766-17.0903 481.08-17.0244 481.37-16.9541L481.37-14.8447C480.693-15.0381 480.016-15.1853 479.34-15.2864 478.663-15.3875 478.008-15.438 477.375-15.438 476.03-15.438 475.042-15.2139 474.409-14.7656 473.776-14.3174 473.46-13.7153 473.46-12.9595 473.46-12.4937 473.589-12.0937 473.849-11.7598 474.108-11.4258 474.448-11.127 474.87-10.8633 475.292-10.5996 475.773-10.3601 476.314-10.1448 476.854-9.92944 477.406-9.70752 477.968-9.479 478.531-9.25049 479.082-9 479.623-8.72754 480.164-8.45508 480.645-8.13208 481.067-7.75854 481.488-7.38501 481.829-6.94775 482.088-6.44678 482.348-5.9458 482.477-5.35254 482.477-4.66699Z" fill="#2F5597" transform="translate(23.1723 104)"/></g></g></g><rect x="257.5" y="187.5" width="796" height="146" stroke="#172C51" stroke-width="1.33333" stroke-miterlimit="8" fill="#DAE3F3"/><text fill="#2F5597" font-family="Consolas,Consolas_MSFontService,sans-serif" font-weight="400" font-size="27" transform="translate(420.506 221)">MUCHAS GRACIAS POR LLEGAR AQUÍ!!</text><text fill="#2F5597" font-family="Consolas,Consolas_MSFontService,sans-serif" font-weight="400" font-size="27" transform="translate(413.172 285)">TE INVITO A SEGUIRME EN MIS REDES</text><path d="M601.5 380.334C601.5 375.455 605.455 371.5 610.334 371.5L975.666 371.5C980.545 371.5 984.5 375.455 984.5 380.334L984.5 415.666C984.5 420.545 980.545 424.5 975.666 424.5L610.334 424.5C605.455 424.5 601.5 420.545 601.5 415.666Z" stroke="#172C51" stroke-width="1.33333" stroke-miterlimit="8" fill="#DAE3F3" fill-rule="evenodd"/><text fill="#4472C4" font-family="Consolas,Consolas_MSFontService,sans-serif" font-weight="400" font-size="24" transform="translate(680.911 406)">martin</text><text fill="#4472C4" font-family="Consolas,Consolas_MSFontService,sans-serif" font-weight="400" font-size="24" transform="translate(759.911 406)">-</text><text fill="#4472C4" font-family="Consolas,Consolas_MSFontService,sans-serif" font-weight="400" font-size="24" transform="translate(773.078 406)">ushinahua</text><text fill="#4472C4" font-family="Consolas,Consolas_MSFontService,sans-serif" font-weight="400" font-size="24" transform="translate(891.578 406)">/</text><path d="M601.5 446.167C601.5 441.38 605.38 437.5 610.167 437.5L975.833 437.5C980.62 437.5 984.5 441.38 984.5 446.167L984.5 480.833C984.5 485.62 980.62 489.5 975.833 489.5L610.167 489.5C605.38 489.5 601.5 485.62 601.5 480.833Z" stroke="#172C51" stroke-width="1.33333" stroke-miterlimit="8" fill="#DAE3F3" fill-rule="evenodd"/><text fill="#4472C4" font-family="Consolas,Consolas_MSFontService,sans-serif" font-weight="400" font-size="24" transform="translate(700.661 472)">martinushinahu</text><path d="M601.5 512.334C601.5 507.455 605.455 503.5 610.334 503.5L975.666 503.5C980.545 503.5 984.5 507.455 984.5 512.334L984.5 547.666C984.5 552.545 980.545 556.5 975.666 556.5L610.334 556.5C605.455 556.5 601.5 552.545 601.5 547.666Z" stroke="#172C51" stroke-width="1.33333" stroke-miterlimit="8" fill="#DAE3F3" fill-rule="evenodd"/><text fill="#4472C4" font-family="Consolas,Consolas_MSFontService,sans-serif" font-weight="400" font-size="24" transform="translate(613.565 538)">martin.ushinahua@gmail.co</text><text fill="#4472C4" font-family="Consolas,Consolas_MSFontService,sans-serif" font-weight="400" font-size="24" transform="translate(942.732 538)">m</text><path d="M601.5 577.333C601.5 572.455 605.455 568.5 610.333 568.5L1112.67 568.5C1117.55 568.5 1121.5 572.455 1121.5 577.333L1121.5 612.667C1121.5 617.545 1117.55 621.5 1112.67 621.5L610.333 621.5C605.455 621.5 601.5 617.545 601.5 612.667Z" stroke="#172C51" stroke-width="1.33333" stroke-miterlimit="8" fill="#DAE3F3" fill-rule="evenodd"/><text fill="#4472C4" font-family="Consolas,Consolas_MSFontService,sans-serif" font-weight="400" font-size="24" transform="translate(613.565 603)">martinushinahu.github.io/</text><text fill="#4472C4" font-family="Consolas,Consolas_MSFontService,sans-serif" font-weight="400" font-size="24" transform="translate(942.731 603)">martin_repo</text><text fill="#4472C4" font-family="Consolas,Consolas_MSFontService,sans-serif" font-weight="400" font-size="24" transform="translate(1087.56 603)">/</text></g></svg>