<svg width="1280" height="720" xmlns="http://www.w3.org/2000/svg" xmlns:xlink="http://www.w3.org/1999/xlink" overflow="hidden"><defs><filter id="fx0" x="-10%" y="-10%" width="120%" height="120%" filterUnits="userSpaceOnUse" primitiveUnits="userSpaceOnUse"><feComponentTransfer color-interpolation-filters="sRGB"><feFuncR type="discrete" tableValues="0 0"/><feFuncG type="discrete" tableValues="0 0"/><feFuncB type="discrete" tableValues="0 0"/><feFuncA type="linear" slope="0.4" intercept="0"/></feComponentTransfer><feGaussianBlur stdDeviation="4.88889 4.88889"/></filter><filter id="fx1" x="-10%" y="-10%" width="120%" height="120%" filterUnits="userSpaceOnUse" primitiveUnits="userSpaceOnUse"><feComponentTransfer color-interpolation-filters="sRGB"><feFuncR type="discrete" tableValues="0 0"/><feFuncG type="discrete" tableValues="0 0"/><feFuncB type="discrete" tableValues="0 0"/><feFuncA type="linear" slope="0.4" intercept="0"/></feComponentTransfer><feGaussianBlur stdDeviation="4.44444 4.44444"/></filter><filter id="fx2" x="-10%" y="-10%" width="120%" height="120%" filterUnits="userSpaceOnUse" primitiveUnits="userSpaceOnUse"><feComponentTransfer color-interpolation-filters="sRGB"><feFuncR type="discrete" tableValues="0 0"/><feFuncG type="discrete" tableValues="0 0"/><feFuncB type="discrete" tableValues="0 0"/><feFuncA type="linear" slope="0.4" intercept="0"/></feComponentTransfer><feGaussianBlur stdDeviation="4.44444 4.44444"/></filter><filter id="fx3" x="-10%" y="-10%" width="120%" height="120%" filterUnits="userSpaceOnUse" primitiveUnits="userSpaceOnUse"><feComponentTransfer color-interpolation-filters="sRGB"><feFuncR type="discrete" tableValues="0 0"/><feFuncG type="discrete" tableValues="0 0"/><feFuncB type="discrete" tableValues="0 0"/><feFuncA type="linear" slope="0.4" intercept="0"/></feComponentTransfer><feGaussianBlur stdDeviation="4.44444 4.44444"/></filter><clipPath id="clip4"><rect x="0" y="0" width="1280" height="720"/></clipPath><clipPath id="clip5"><path d="M1.90809e-05 1.07363e-05 1280 1.07363e-05 1280 0.500064 0.500073 0.500064 0.500073 720 1.90809e-05 720Z" fill-rule="evenodd" clip-rule="evenodd"/></clipPath><clipPath id="clip6"><path d="M35.6672 77.5001C27.2906 77.5001 20.5001 84.2906 20.5001 92.6672L20.5001 153.333C20.5001 161.71 27.2906 168.5 35.6672 168.5L280.333 168.5C288.71 168.5 295.5 161.71 295.5 153.333L295.5 92.6672C295.5 84.2906 288.71 77.5001 280.333 77.5001ZM1.90735e-05 1.07288e-05 1280 1.07288e-05 1280 720 1.90735e-05 720Z" fill-rule="evenodd" clip-rule="evenodd"/></clipPath><clipPath id="clip7"><path d="M66.3342 184.5C41.0207 184.5 20.5001 205.021 20.5001 230.334L20.5001 664.666C20.5001 689.979 41.0207 710.5 66.3342 710.5L249.666 710.5C274.979 710.5 295.5 689.979 295.5 664.666L295.5 230.334C295.5 205.021 274.979 184.5 249.666 184.5ZM1.90735e-05 1.07288e-05 1280 1.07288e-05 1280 720 1.90735e-05 720Z" fill-rule="evenodd" clip-rule="evenodd"/></clipPath><clipPath id="clip8"><path d="M421.002 77.5001C362.735 77.5001 315.5 124.735 315.5 183.003L315.5 604.998C315.5 663.265 362.735 710.5 421.002 710.5L1164 710.5C1222.27 710.5 1269.5 663.265 1269.5 604.998L1269.5 183.003C1269.5 124.735 1222.27 77.5001 1164 77.5001ZM1.90735e-05 1.07288e-05 1280 1.07288e-05 1280 720 1.90735e-05 720Z" fill-rule="evenodd" clip-rule="evenodd"/></clipPath></defs><g clip-path="url(#clip4)"><rect x="0" y="0" width="1280" height="720" fill="#FFFFFF"/><g clip-path="url(#clip5)"><g filter="url(#fx0)" transform="translate(-15 -11)"><g><rect x="15.5001" y="16.8334" width="1280" height="720" stroke="#172C51" stroke-miterlimit="8" fill="#FFD966"/></g></g></g><rect x="0.500053" y="0.500053" width="1280" height="720" stroke="#172C51" stroke-width="1.33333" stroke-miterlimit="8" fill="#FFD966"/><g clip-path="url(#clip6)"><g filter="url(#fx1)" transform="translate(5 67)"><g><path d="M15.5001 31.0005C15.5001 22.6239 22.2906 15.8334 30.6672 15.8334L275.333 15.8334C283.71 15.8334 290.5 22.6239 290.5 31.0005L290.5 91.6663C290.5 100.043 283.71 106.833 275.333 106.833L30.6672 106.833C22.2906 106.833 15.5001 100.043 15.5001 91.6663Z" stroke="#172C51" stroke-miterlimit="8" fill="#FFF2CC" fill-rule="evenodd"/></g></g></g><path d="M20.5001 92.6672C20.5001 84.2906 27.2906 77.5001 35.6672 77.5001L280.333 77.5001C288.71 77.5001 295.5 84.2906 295.5 92.6672L295.5 153.333C295.5 161.71 288.71 168.5 280.333 168.5L35.6672 168.5C27.2906 168.5 20.5001 161.71 20.5001 153.333Z" stroke="#172C51" stroke-width="1.33333" stroke-miterlimit="8" fill="#FFF2CC" fill-rule="evenodd"/><g clip-path="url(#clip7)"><g filter="url(#fx2)" transform="translate(5 174)"><g><path d="M15.5001 61.6674C15.5001 36.354 36.0207 15.8334 61.3342 15.8334L244.666 15.8334C269.979 15.8334 290.5 36.354 290.5 61.6674L290.5 495.999C290.5 521.313 269.979 541.833 244.666 541.833L61.3342 541.833C36.0207 541.833 15.5001 521.313 15.5001 495.999Z" stroke="#172C51" stroke-miterlimit="8" fill="#FFF2CC" fill-rule="evenodd"/></g></g></g><path d="M20.5001 230.334C20.5001 205.021 41.0207 184.5 66.3342 184.5L249.666 184.5C274.979 184.5 295.5 205.021 295.5 230.334L295.5 664.666C295.5 689.979 274.979 710.5 249.666 710.5L66.3342 710.5C41.0207 710.5 20.5001 689.979 20.5001 664.666Z" stroke="#172C51" stroke-width="1.33333" stroke-miterlimit="8" fill="#FFF2CC" fill-rule="evenodd"/><g clip-path="url(#clip8)"><g filter="url(#fx3)" transform="translate(300 67)"><g><path d="M15.5001 121.336C15.5001 63.0684 62.7351 15.8334 121.002 15.8334L863.998 15.8334C922.265 15.8334 969.5 63.0684 969.5 121.336L969.5 543.331C969.5 601.598 922.265 648.833 863.998 648.833L121.002 648.833C62.7351 648.833 15.5001 601.598 15.5001 543.331Z" stroke="#172C51" stroke-miterlimit="8" fill="#FFF2CC" fill-rule="evenodd"/></g></g></g><path d="M315.5 183.002C315.5 124.735 362.735 77.5001 421.002 77.5001L1164 77.5001C1222.27 77.5001 1269.5 124.735 1269.5 183.002L1269.5 604.998C1269.5 663.265 1222.27 710.5 1164 710.5L421.002 710.5C362.735 710.5 315.5 663.265 315.5 604.998Z" stroke="#172C51" stroke-width="1.33333" stroke-miterlimit="8" fill="#FFF2CC" fill-rule="evenodd"/></g></svg>