<svg width="1280" height="720" xmlns="http://www.w3.org/2000/svg" xmlns:xlink="http://www.w3.org/1999/xlink" overflow="hidden"><defs><filter id="fx0" x="-10%" y="-10%" width="120%" height="120%" filterUnits="userSpaceOnUse" primitiveUnits="userSpaceOnUse"><feComponentTransfer color-interpolation-filters="sRGB"><feFuncR type="discrete" tableValues="0 0"/><feFuncG type="discrete" tableValues="0 0"/><feFuncB type="discrete" tableValues="0 0"/><feFuncA type="linear" slope="0.4" intercept="0"/></feComponentTransfer><feGaussianBlur stdDeviation="4.88889 4.88889"/></filter><filter id="fx1" x="-10%" y="-10%" width="120%" height="120%" filterUnits="userSpaceOnUse" primitiveUnits="userSpaceOnUse"><feComponentTransfer color-interpolation-filters="sRGB"><feFuncR type="discrete" tableValues="0 0"/><feFuncG type="discrete" tableValues="0 0"/><feFuncB type="discrete" tableValues="0 0"/><feFuncA type="linear" slope="0.4" intercept="0"/></feComponentTransfer><feGaussianBlur stdDeviation="4.44444 4.44444"/></filter><filter id="fx2" x="-10%" y="-10%" width="120%" height="120%" filterUnits="userSpaceOnUse" primitiveUnits="userSpaceOnUse"><feComponentTransfer color-interpolation-filters="sRGB"><feFuncR type="discrete" tableValues="0 0"/><feFuncG type="discrete" tableValues="0 0"/><feFuncB type="discrete" tableValues="0 0"/><feFuncA type="linear" slope="0.4" intercept="0"/></feComponentTransfer><feGaussianBlur stdDeviation="4.44444 4.44444"/></filter><filter id="fx3" x="-10%" y="-10%" width="120%" height="120%" filterUnits="userSpaceOnUse" primitiveUnits="userSpaceOnUse"><feComponentTransfer color-interpolation-filters="sRGB"><feFuncR type="discrete" tableValues="0 0"/><feFuncG type="discrete" tableValues="0 0"/><feFuncB type="discrete" tableValues="0 0"/><feFuncA type="linear" slope="0.4" intercept="0"/></feComponentTransfer><feGaussianBlur stdDeviation="4.44444 4.44444"/></filter><filter id="fx4" x="-10%" y="-10%" width="120%" height="120%" filterUnits="userSpaceOnUse" primitiveUnits="userSpaceOnUse"><feComponentTransfer color-interpolation-filters="sRGB"><feFuncR type="discrete" tableValues="0 0"/><feFuncG type="discrete" tableValues="0 0"/><feFuncB type="discrete" tableValues="0 0"/><feFuncA type="linear" slope="0.4" intercept="0"/></feComponentTransfer><feGaussianBlur stdDeviation="4.44444 4.44444"/></filter><clipPath id="clip5"><rect x="0" y="0" width="1280" height="720"/></clipPath><clipPath id="clip6"><path d="M1.90809e-05 1.07363e-05 1280 1.07363e-05 1280 0.500064 0.500073 0.500064 0.500073 720 1.90809e-05 720Z" fill-rule="evenodd" clip-rule="evenodd"/></clipPath><clipPath id="clip7"><path d="M35.6669 77.5001C27.2905 77.5001 20.5001 84.2905 20.5001 92.6669L20.5001 153.333C20.5001 161.71 27.2905 168.5 35.6669 168.5L289.333 168.5C297.71 168.5 304.5 161.71 304.5 153.333L304.5 92.6669C304.5 84.2905 297.71 77.5001 289.333 77.5001ZM1.90735e-05 1.07288e-05 1280 1.07288e-05 1280 720 1.90735e-05 720Z" fill-rule="evenodd" clip-rule="evenodd"/></clipPath><clipPath id="clip8"><path d="M46.334 186.5C32.0663 186.5 20.5001 198.066 20.5001 212.334L20.5001 315.666C20.5001 329.934 32.0663 341.5 46.334 341.5L278.666 341.5C292.934 341.5 304.5 329.934 304.5 315.666L304.5 212.334C304.5 198.066 292.934 186.5 278.666 186.5ZM1.90735e-05 1.07288e-05 1280 1.07288e-05 1280 720 1.90735e-05 720Z" fill-rule="evenodd" clip-rule="evenodd"/></clipPath><clipPath id="clip9"><path d="M421.002 77.5001C362.735 77.5001 315.5 124.735 315.5 183.003L315.5 604.998C315.5 663.265 362.735 710.5 421.002 710.5L1164 710.5C1222.27 710.5 1269.5 663.265 1269.5 604.998L1269.5 183.003C1269.5 124.735 1222.27 77.5001 1164 77.5001ZM1.90735e-05 1.07288e-05 1280 1.07288e-05 1280 720 1.90735e-05 720Z" fill-rule="evenodd" clip-rule="evenodd"/></clipPath><clipPath id="clip10"><path d="M46.334 359.5C32.0663 359.5 20.5001 371.066 20.5001 385.334L20.5001 488.666C20.5001 502.934 32.0663 514.5 46.334 514.5L278.666 514.5C292.934 514.5 304.5 502.934 304.5 488.666L304.5 385.334C304.5 371.066 292.934 359.5 278.666 359.5ZM1.90735e-05 1.07288e-05 1280 1.07288e-05 1280 720 1.90735e-05 720Z" fill-rule="evenodd" clip-rule="evenodd"/></clipPath></defs><g clip-path="url(#clip5)"><rect x="0" y="0" width="1280" height="720" fill="#FFFFFF"/><g clip-path="url(#clip6)"><g filter="url(#fx0)" transform="translate(-15 -11)"><g><rect x="15.5001" y="16.8334" width="1280" height="720" stroke="#172C51" stroke-miterlimit="8" fill="#FFD966"/></g></g></g><rect x="0.500053" y="0.500053" width="1280" height="720" stroke="#172C51" stroke-width="1.33333" stroke-miterlimit="8" fill="#FFD966"/><g clip-path="url(#clip7)"><g filter="url(#fx1)" transform="translate(5 67)"><g><path d="M15.5001 31.0003C15.5001 22.6238 22.2905 15.8334 30.6669 15.8334L284.333 15.8334C292.71 15.8334 299.5 22.6238 299.5 31.0003L299.5 91.6665C299.5 100.043 292.71 106.833 284.333 106.833L30.6669 106.833C22.2905 106.833 15.5001 100.043 15.5001 91.6665Z" stroke="#172C51" stroke-miterlimit="8" fill="#FFF2CC" fill-rule="evenodd"/></g></g></g><path d="M20.5001 92.6669C20.5001 84.2905 27.2905 77.5001 35.6669 77.5001L289.333 77.5001C297.71 77.5001 304.5 84.2905 304.5 92.6669L304.5 153.333C304.5 161.71 297.71 168.5 289.333 168.5L35.6669 168.5C27.2905 168.5 20.5001 161.71 20.5001 153.333Z" stroke="#172C51" stroke-width="1.33333" stroke-miterlimit="8" fill="#FFF2CC" fill-rule="evenodd"/><g clip-path="url(#clip8)"><g filter="url(#fx2)" transform="translate(5 176)"><g><path d="M15.5001 41.6673C15.5001 27.3996 27.0663 15.8334 41.334 15.8334L273.666 15.8334C287.934 15.8334 299.5 27.3996 299.5 41.6673L299.5 144.999C299.5 159.267 287.934 170.833 273.666 170.833L41.334 170.833C27.0663 170.833 15.5001 159.267 15.5001 144.999Z" stroke="#172C51" stroke-miterlimit="8" fill="#FFF2CC" fill-rule="evenodd"/></g></g></g><path d="M20.5001 212.334C20.5001 198.066 32.0663 186.5 46.334 186.5L278.666 186.5C292.934 186.5 304.5 198.066 304.5 212.334L304.5 315.666C304.5 329.934 292.934 341.5 278.666 341.5L46.334 341.5C32.0663 341.5 20.5001 329.934 20.5001 315.666Z" stroke="#172C51" stroke-width="1.33333" stroke-miterlimit="8" fill="#FFF2CC" fill-rule="evenodd"/><g clip-path="url(#clip9)"><g filter="url(#fx3)" transform="translate(300 67)"><g><path d="M15.5001 121.336C15.5001 63.0684 62.7351 15.8334 121.002 15.8334L863.998 15.8334C922.265 15.8334 969.5 63.0684 969.5 121.336L969.5 543.331C969.5 601.598 922.265 648.833 863.998 648.833L121.002 648.833C62.7351 648.833 15.5001 601.598 15.5001 543.331Z" stroke="#172C51" stroke-miterlimit="8" fill="#FFF2CC" fill-rule="evenodd"/></g></g></g><path d="M315.5 183.002C315.5 124.735 362.735 77.5001 421.002 77.5001L1164 77.5001C1222.27 77.5001 1269.5 124.735 1269.5 183.002L1269.5 604.998C1269.5 663.265 1222.27 710.5 1164 710.5L421.002 710.5C362.735 710.5 315.5 663.265 315.5 604.998Z" stroke="#172C51" stroke-width="1.33333" stroke-miterlimit="8" fill="#FFF2CC" fill-rule="evenodd"/><g clip-path="url(#clip10)"><g filter="url(#fx4)" transform="translate(5 349)"><g><path d="M15.5001 41.6673C15.5001 27.3996 27.0663 15.8334 41.334 15.8334L273.666 15.8334C287.934 15.8334 299.5 27.3996 299.5 41.6673L299.5 144.999C299.5 159.267 287.934 170.833 273.666 170.833L41.334 170.833C27.0663 170.833 15.5001 159.267 15.5001 144.999Z" stroke="#172C51" stroke-miterlimit="8" fill="#FFF2CC" fill-rule="evenodd"/></g></g></g><path d="M20.5001 385.334C20.5001 371.066 32.0663 359.5 46.334 359.5L278.666 359.5C292.934 359.5 304.5 371.066 304.5 385.334L304.5 488.666C304.5 502.934 292.934 514.5 278.666 514.5L46.334 514.5C32.0663 514.5 20.5001 502.934 20.5001 488.666Z" stroke="#172C51" stroke-width="1.33333" stroke-miterlimit="8" fill="#FFF2CC" fill-rule="evenodd"/></g></svg>